<?xml version="1.0" encoding="UTF-8" standalone="no"?>
<!DOCTYPE svg PUBLIC "-//W3C//DTD SVG 20010904//EN"
              "http://www.w3.org/TR/2001/REC-SVG-20010904/DTD/svg10.dtd">

<svg xmlns="http://www.w3.org/2000/svg"
     width="11.1136in" height="5.40401in"
     viewBox="0 0 800 389">
  <path id="Unnamed"
        fill="none" stroke="black" stroke-width="3" stroke-linecap="round"
        d="m115.978862,164.698464c0.637257,-0.727919 2.616921,-2.108218 5.09806,-5.095435c5.90086,-7.104455 14.858039,-15.601372 26.127557,-21.109661c7.410787,-3.622225 12.210055,-3.727032 14.019664,2.183758c4.002423,13.073247 -1.96096,31.726769 -15.294179,48.770596c-12.914197,16.508183 -37.114027,35.023143 -45.245281,40.763483c-2.424271,1.711437 -3.186287,1.455839 -3.186287,-1.455839c0,-11.646709 -0.337537,-25.417209 6.372575,-43.67516c6.732741,-18.319529 19.223796,-29.787891 31.862874,-32.75637c11.876204,-2.78931 19.983831,-2.076985 28.039329,7.279193c7.436881,8.637678 8.916432,23.824564 10.19612,40.035564c0.915669,11.599659 0.123521,18.220131 -0.637257,23.293419c-0.548606,3.65839 -0.522254,-0.700662 1.274515,-10.91879c2.042859,-11.617631 3.375891,-22.032311 1.911772,-29.116774c-0.32739,-1.584138 -1.699707,-1.451807 -1.911772,5.823355c-0.318804,10.936961 -0.930079,16.781087 -0.637257,18.197984c0.32739,1.584126 7.839621,1.905279 14.656922,-2.183758c6.579691,-3.94651 9.679145,-7.70482 10.19612,-7.279193c3.26961,2.691867 1.079155,6.157325 1.911772,6.551274c0.588746,0.278568 2.608073,0.230229 5.09806,-0.727919c4.599249,-1.769805 7.64709,-2.183758 8.284347,-2.183758c0.637257,0 2.496522,-0.446308 3.186287,1.455839c0.243872,0.672506 2.832925,1.83065 10.833377,-1.455839c18.772297,-7.71144 25.863595,-15.587821 26.764814,-14.558387c0.4506,0.514717 0.747564,2.076563 1.274515,2.911677c0.833192,1.320442 4.115219,1.121546 10.19612,-5.095435c6.043697,-6.178962 9.016781,-7.66188 9.558862,-7.279193c1.212127,0.855718 1.312515,10.944359 0.637257,22.5655c-0.638658,10.991231 -9.850264,23.735351 -25.490299,39.307644c-21.83483,21.740259 -50.950853,41.126732 -56.078658,41.491402c-1.272055,0.090457 0.703544,-15.927034 14.656922,-29.844693c24.630668,-24.567633 66.293914,-41.179313 119.804405,-52.410192c59.394058,-12.465741 119.167148,-19.653822 149.755507,-22.5655l8.284347,-2.911677l0,0.727919"/>
</svg>
